<svg width="56" height="44" viewBox="0 0 56 44" fill="none" xmlns="http://www.w3.org/2000/svg">
<path d="M55.4207 5.15137C53.8147 7.437 51.9516 9.29514 49.8316 10.7258L49.8344 12.2237C49.8412 15.7902 49.1527 19.4115 47.7689 23.0877C46.3851 26.7638 44.3601 30.0846 41.694 33.0498C39.0278 36.0151 35.7202 38.4467 31.771 40.3444C27.8218 42.2422 23.2853 43.1959 18.1613 43.2057C14.9405 43.2118 11.9019 42.7896 9.04555 41.9391C6.18915 41.0885 3.51507 39.881 1.02331 38.3165C1.46264 38.387 1.90194 38.4396 2.3412 38.4745C2.78046 38.5093 3.21969 38.5263 3.65889 38.5254C6.29406 38.5204 8.80033 38.0877 11.1777 37.2272C13.555 36.3667 15.6939 35.2214 17.5944 33.7911C15.1055 33.7245 12.9264 32.9975 11.0572 31.6102C9.18797 30.2228 7.88526 28.4241 7.14906 26.2143C7.51533 26.3563 7.86316 26.4269 8.19256 26.4263L9.23565 26.4243C10.2604 26.4224 11.2118 26.3136 12.0898 26.0979C9.52675 25.5321 7.40156 24.2701 5.71425 22.3117C4.02694 20.3533 3.18077 18.0545 3.17575 15.4153L3.17555 15.3083C3.98142 15.6634 4.78719 15.965 5.59286 16.2132C6.39852 16.4613 7.27715 16.5844 8.22874 16.5826C6.76286 15.5868 5.57093 14.3051 4.65295 12.7376C3.73498 11.1701 3.27423 9.45901 3.2707 7.60443C3.2669 5.60718 3.77584 3.78729 4.79751 2.14474C7.58532 5.42065 10.9575 8.07129 14.9142 10.0967C18.8708 12.1221 23.1551 13.2374 27.7671 13.4426C27.5458 12.5871 27.4345 11.767 27.433 10.9824C27.4301 9.48442 27.7203 8.07509 28.3033 6.75437C28.8864 5.43365 29.6894 4.273 30.7123 3.27243C31.7352 2.27186 32.9232 1.48496 34.2763 0.911746C35.6294 0.338529 37.0745 0.05046 38.6117 0.0475374C40.2221 0.0444756 41.7233 0.344776 43.1152 0.948439C44.5072 1.5521 45.7165 2.38793 46.7434 3.45594C48.0605 3.23944 49.3043 2.89826 50.4746 2.43239C51.6449 1.96651 52.7784 1.41155 53.8752 0.767487C53.0018 3.40838 51.3587 5.44442 48.9459 6.87561C51.2876 6.51451 53.4458 5.93976 55.4207 5.15137Z" fill="white"/>
</svg>
