<svg width="56" height="54" viewBox="0 0 56 54" fill="none" xmlns="http://www.w3.org/2000/svg">
<rect width="56" height="54" fill="#1E1E1E"/>
<g id="Group 51">
<g id="Home page">
<rect width="1512" height="6188" transform="translate(-668 -6068)" fill="white"/>
<rect id="Rectangle 40" x="-668" y="-306" width="1512" height="426" fill="#79AC78"/>
<g id="Group 25">
<g id="&#240;&#159;&#166;&#134; icon &#34;circle facebook&#34;">
<path id="Vector" d="M27.7826 0.490282C31.5475 0.483125 35.0865 1.17219 38.3996 2.55747C41.7127 3.94275 44.6048 5.83486 47.076 8.23381C49.5472 10.6327 51.4998 13.4333 52.934 16.6354C54.3681 19.8375 55.0887 23.273 55.0956 26.9417C55.1026 30.6104 54.3951 34.059 52.9732 37.2877C51.5513 40.5163 49.6094 43.3348 47.1473 45.7431C44.6853 48.1514 41.8003 50.0545 38.4925 51.4524C35.1847 52.8503 31.6484 53.5528 27.8835 53.5599C24.1187 53.5671 20.5906 52.878 17.2991 51.4927C14.0076 50.1074 11.1263 48.2152 8.65511 45.8163C6.18393 43.4174 4.23125 40.6063 2.79707 37.3831C1.3629 34.1599 0.642325 30.7139 0.63535 27.0452C0.628375 23.3765 1.33586 19.9384 2.75781 16.7308C4.17976 13.5233 6.12175 10.7153 8.5838 8.30699C11.0458 5.89867 13.92 3.99559 17.2061 2.59776C20.4923 1.19993 24.0178 0.49744 27.7826 0.490282ZM38.0606 12.0462L32.2835 12.0572C31.1584 12.0593 30.1202 12.251 29.1689 12.6324C28.2176 13.0137 27.3855 13.5213 26.6727 14.1552C25.9599 14.7891 25.4095 15.507 25.0215 16.309C24.6336 17.1109 24.4404 17.9125 24.4419 18.7137L24.4483 22.0661L19.3203 22.0759L19.3328 28.6542L24.4608 28.6445L24.4861 41.9277L31.3017 41.9148L31.2764 28.6315L36.3395 28.6219L36.327 22.0436L31.2639 22.0532L31.2607 20.3453C31.2597 19.8393 31.4645 19.4383 31.8751 19.1423C32.2856 18.8464 32.6423 18.6981 32.9452 18.6975L38.0732 18.6878L38.0606 12.0462Z" fill="white"/>
</g>
</g>
</g>
</g>
</svg>
